<?xml version="1.0" standalone="no"?><!DOCTYPE svg PUBLIC "-//W3C//DTD SVG 1.1//EN" "http://www.w3.org/Graphics/SVG/1.1/DTD/svg11.dtd"><svg class="icon" width="200px" height="200.00px" viewBox="0 0 1024 1024" version="1.1" xmlns="http://www.w3.org/2000/svg"><path d="M516.388571 883.565714a50.468571 50.468571 0 0 1-14.628571 0A820.662857 820.662857 0 0 1 343.771429 804.571429a1152 1152 0 0 1-146.285715-134.582858 43.154286 43.154286 0 0 1-11.702857-29.257142V300.617143A40.96 40.96 0 0 1 219.428571 259.657143a512 512 0 0 0 133.12-27.794286A650.971429 650.971429 0 0 0 490.788571 146.285714a40.228571 40.228571 0 0 1 49.737143 0 571.245714 571.245714 0 0 0 128.731429 85.577143 479.817143 479.817143 0 0 0 131.657143 27.062857 41.691429 41.691429 0 0 1 37.302857 41.691429v340.845714a43.154286 43.154286 0 0 1-11.702857 29.257143 1081.051429 1081.051429 0 0 1-146.285715 135.314286 726.308571 726.308571 0 0 1-151.405714 73.142857 32.914286 32.914286 0 0 1-12.434286 4.388571z m0-704.365714H512a715.337143 715.337143 0 0 1-146.285714 88.502857 563.931429 563.931429 0 0 1-142.628572 29.988572v343.04A1015.954286 1015.954286 0 0 0 365.714286 773.12a762.148571 762.148571 0 0 0 149.942857 73.142857 699.977143 699.977143 0 0 0 146.285714-73.142857 996.937143 996.937143 0 0 0 136.777143-129.462857V300.617143a569.782857 569.782857 0 0 1-146.285714-32.914286 566.125714 566.125714 0 0 1-138.24-87.771428z" fill="#979797" /><path d="M509.074286 376.685714H363.52v-28.525714h303.542857v28.525714H536.868571v116.297143h110.445715v27.062857H536.868571v128h146.285715v27.794286H340.845714v-27.794286h60.708572V456.411429h26.331428v191.634285h81.188572V376.685714z" fill="#999999" /></svg>