<?xml version="1.0" standalone="no"?><!DOCTYPE svg PUBLIC "-//W3C//DTD SVG 1.1//EN" "http://www.w3.org/Graphics/SVG/1.1/DTD/svg11.dtd"><svg class="icon" width="200px" height="200.00px" viewBox="0 0 1024 1024" version="1.1" xmlns="http://www.w3.org/2000/svg"><path d="M512 182.857143A329.142857 329.142857 0 1 1 182.857143 512 329.874286 329.874286 0 0 1 512 182.857143M512 146.285714a365.714286 365.714286 0 1 0 365.714286 365.714286 365.714286 365.714286 0 0 0-365.714286-365.714286z" fill="#979797" /><path d="M402.285714 365.714286a36.571429 36.571429 0 1 0 36.571429 36.571428 36.571429 36.571429 0 0 0-36.571429-36.571428z" fill="#979797" /><path d="M469.577143 318.902857l219.428571 231.862857-146.285714 146.285715-219.428571-231.862858 28.525714-119.222857L468.114286 321.828571m10.971428-37.302857l-154.331428 29.988572-37.302857 157.988571 256 269.897143 193.097142-190.902857-256-269.897143z" fill="#979797" /></svg>