<?xml version="1.0" encoding="utf-8"?>
<!-- Generator: Adobe Illustrator 22.1.0, SVG Export Plug-In . SVG Version: 6.00 Build 0)  -->
<svg version="1.1" id="图层_1" xmlns="http://www.w3.org/2000/svg" xmlns:xlink="http://www.w3.org/1999/xlink" x="0px" y="0px"
	 viewBox="0 0 200 200" style="enable-background:new 0 0 200 200;" xml:space="preserve">
<path d="M184.9,130.3c-3.9-22-20.4-36.3-20.4-36.3c2.3-19.9-6.3-23.4-6.3-23.4C156.4,8.9,101.1,10,100,10c-1.1,0-56.4-1.1-58.2,60.5
	c0,0-8.6,3.5-6.3,23.4c0,0-16.5,14.4-20.4,36.3c0,0-2.1,37.1,18.9,4.5c0,0,4.7,12.3,13.4,23.4c0,0-15.5,5-14.1,18.2
	c0,0-0.6,14.6,33.1,13.6c0,0,23.6-1.8,30.7-11.3h3.1h0.1h3.1c7.1,9.5,30.7,11.3,30.7,11.3c33.5,1,33.1-13.6,33.1-13.6
	c1.3-13.1-14.1-18.2-14.1-18.2c8.6-11.1,13.4-23.4,13.4-23.4C187,167.3,184.9,130.3,184.9,130.3L184.9,130.3z"/>
</svg>
