<?xml version="1.0" encoding="utf-8"?>
<!-- Generator: Adobe Illustrator 22.1.0, SVG Export Plug-In . SVG Version: 6.00 Build 0)  -->
<svg version="1.1" id="图层_1" xmlns="http://www.w3.org/2000/svg" xmlns:xlink="http://www.w3.org/1999/xlink" x="0px" y="0px"
	 viewBox="0 0 200 200" style="enable-background:new 0 0 200 200;" xml:space="preserve">
<path d="M133.7,74.9c2.5,3.2,5.2,6.5,8.1,9.9c2.4,3,5,6.3,8,9.9s5.9,7.3,9.1,11.1c4,5,7.2,9.3,9.8,13.2c2.6,3.9,4.6,7.5,6.1,10.7
	c1.5,3.2,2.5,6.2,3.1,8.9c0.5,2.7,0.8,5.4,0.8,8.2v12.6c0,3.9-0.6,7.4-1.8,10.5c-1.2,3.1-2.9,5.8-5,8.1c-2.1,2.2-4.5,4-7.2,5.2
	c-2.7,1.3-5.6,1.8-8.6,1.8H45.3c-3.2,0-6.3-0.6-9.3-1.7c-3-1.2-5.5-2.8-7.7-5s-4-4.7-5.3-7.7s-2-6.3-2-10.1v-15
	c0-3.1,0.3-6.1,0.8-8.9c0.5-2.8,1.5-5.8,3-8.9c1.4-3.1,3.4-6.4,5.9-10c2.5-3.6,5.7-7.5,9.5-11.7c3.2-3.6,6.3-7.3,9.6-11
	c3.3-3.7,6.3-7,8.9-10c3.2-3.5,6.1-6.9,9-10.1C67.8,74.9,133.7,74.9,133.7,74.9z M100,148.4c3.2,0,6-0.7,8.8-1.9
	c2.8-1.3,5.1-3,7.2-5.2c2.1-2.2,3.7-4.9,4.9-7.9c1.2-3,1.8-6.2,1.8-9.6s-0.6-6.5-1.8-9.5c-1.2-3-2.8-5.5-4.9-7.8
	c-2.1-2.2-4.4-4-7.2-5.2s-5.7-1.9-8.8-1.9c-3.2,0-6.1,0.7-8.9,1.9c-2.8,1.3-5.2,3-7.3,5.2c-2.1,2.2-3.7,4.8-4.9,7.8
	c-1.2,3-1.8,6.1-1.8,9.5s0.6,6.6,1.8,9.6c1.2,3,2.8,5.6,4.9,7.9c2.1,2.2,4.5,4,7.3,5.2C93.8,147.7,96.8,148.4,100,148.4z M190,51.5
	v12.2c0,3.4-1.1,6.2-3.3,8.5s-4.9,3.5-8,3.5h-22.5c-3.2,0-5.8-1.2-7.9-3.5c-2.2-2.3-3.2-5.1-3.2-8.5V51.5H55v12.2
	c0,3.4-1.1,6.2-3.2,8.5c-2.2,2.3-4.8,3.5-7.9,3.5H21.3c-3.2,0-5.8-1.2-8-3.5S10,67.1,10,63.7V51.1c0-1.6,0.4-2.9,1.1-4
	c0.7-1.1,1.6-2.1,2.7-3c1.1-0.9,2.3-1.7,3.6-2.4c1.4-0.7,2.6-1.6,4-2.4c1.4-0.8,4.3-2.5,8.9-5.1s10.4-5.4,17.5-8.3
	s14.9-5.3,23.9-7.6S90.1,15,100,15c11.5,0,21.8,1.1,30.8,3.3s16.9,4.8,23.5,7.6c6.7,2.8,12,5.6,16,8.3c4.1,2.6,6.8,4.4,8.2,5.1
	c1.4,0.9,2.8,1.7,4.1,2.4c1.4,0.7,2.5,1.6,3.6,2.4s2,1.9,2.6,3s1,2.4,1,4C190,51.1,190,51.5,190,51.5z"/>
</svg>
