<?xml version="1.0" encoding="utf-8"?>
<!-- Generator: Adobe Illustrator 24.0.3, SVG Export Plug-In . SVG Version: 6.00 Build 0)  -->
<svg version="1.1" id="图层_1" xmlns="http://www.w3.org/2000/svg" xmlns:xlink="http://www.w3.org/1999/xlink" x="0px" y="0px"
	 viewBox="0 0 200 200" style="enable-background:new 0 0 200 200;" xml:space="preserve">
<style type="text/css">
	.st0{fill:#343434;}
</style>
<path class="st0" d="M183.2,144.5l0,26.2l-166.5,0v-26.2c19-3.9,33.3-21,33.3-41.3c0-20.1-13.9-37.3-33.3-41.4l0-26.2l166.5-0.1
	v26.2c-19.4,4-33.3,21.3-33.3,41.4C149.9,123.2,163.8,140.4,183.2,144.5 M191.5,77.8h8.3V35.6c0-9.2-7.4-16.8-16.7-16.8H16.7
	C7.4,18.8,0,26.3,0,35.6v42.3h8.3c13.8,0,25,11.3,25,25.3c0,14-11.2,25.3-25,25.3H0v42.2c0,9.2,7.4,16.8,16.7,16.8h166.5
	c9.2,0,16.7-7.6,16.7-16.8v-42.2h-8.3c-13.8,0-25-11.4-25-25.3C166.5,89.2,177.7,77.8,191.5,77.8"/>
<path class="st0" d="M124.9,106.5c3.2,0,5.9-2.7,5.8-5.9c0,0,0,0,0,0c0-3.2-2.6-5.9-5.8-5.9h-16.8c0,0,0,0,0.1,0l16.6-16.9
	c2.3-2.4,2.2-6.1-0.1-8.4c-0.7-0.7-1.6-1.2-2.5-1.4c-2-0.5-4.2,0-5.6,1.5L99.9,86.3l0,0.1l0-0.1L83.2,69.4c-2.2-2.3-5.9-2.3-8.2-0.1
	c0,0-0.1,0.1-0.1,0.1c-2.3,2.3-2.3,6,0,8.4l16.7,16.9c0,0,0,0,0.1,0H74.9c-3.2,0-5.8,2.7-5.8,5.9c0,3.2,2.6,5.9,5.8,5.9h19.1V120
	H74.9c-2.1,0-4,1.1-5,2.9c-1,1.8-1,4.1,0,5.9c1,1.8,3,2.9,5,2.9h19.2v5.1c0,3.2,2.6,5.9,5.8,5.9c3.2,0,5.8-2.7,5.8-5.9v-5.1h19.1
	c2.1,0,4-1.1,5.1-2.9c1-1.8,1-4.1,0-5.9c-1-1.8-3-2.9-5.1-2.9h-19.1v-13.5H124.9L124.9,106.5z"/>
</svg>
