<?xml version="1.0" standalone="no"?><!DOCTYPE svg PUBLIC "-//W3C//DTD SVG 1.1//EN" "http://www.w3.org/Graphics/SVG/1.1/DTD/svg11.dtd"><svg t="1556531247019" class="icon" style="" viewBox="0 0 1024 1024" version="1.1" xmlns="http://www.w3.org/2000/svg" p-id="1179" xmlns:xlink="http://www.w3.org/1999/xlink" width="32" height="32"><defs><style type="text/css"></style></defs><path d="M752.246 1024H271.754c-70.892 0-126.03-59.077-126.03-126.03v-768C145.723 59.076 200.861 0 271.753 0h480.492c70.892 0 126.03 59.077 126.03 126.03v768c0 70.893-55.138 129.97-126.03 129.97z m63.016-894.03c0-35.447-27.57-63.016-63.016-63.016H271.754c-35.446 0-63.016 27.57-63.016 63.015v31.508h606.524v-31.508z m0 94.522H208.738v512h606.524v-512z m0 575.016H208.738v94.523c0 35.446 27.57 63.015 63.016 63.015h480.492c35.446 0 63.016-27.57 63.016-63.015v-94.523zM512 929.477c-27.57 0-47.262-19.692-47.262-47.262s19.693-47.261 47.262-47.261c27.57 0 47.262 19.692 47.262 47.261S539.569 929.477 512 929.477z m0 0" fill="" p-id="1180"></path></svg>