<?xml version="1.0" standalone="no"?><!DOCTYPE svg PUBLIC "-//W3C//DTD SVG 1.1//EN" "http://www.w3.org/Graphics/SVG/1.1/DTD/svg11.dtd"><svg class="icon" width="200px" height="200.00px" viewBox="0 0 1024 1024" version="1.1" xmlns="http://www.w3.org/2000/svg"><path d="M512 182.857143A329.142857 329.142857 0 1 1 182.857143 512 329.874286 329.874286 0 0 1 512 182.857143M512 146.285714a365.714286 365.714286 0 1 0 365.714286 365.714286 365.714286 365.714286 0 0 0-365.714286-365.714286z" fill="#979797" /><path d="M531.748571 253.805714a24.868571 24.868571 0 0 0-19.748571 6.582857L348.16 420.571429a26.331429 26.331429 0 0 0-8.045714 18.285714 27.794286 27.794286 0 0 0 9.508571 20.48l108.982857 88.502857-49.005714 190.902857a25.6 25.6 0 0 0 18.285714 30.72h6.582857a22.674286 22.674286 0 0 0 17.554286-7.314286l223.817143-215.04a26.331429 26.331429 0 0 0 0-36.571428L522.971429 419.108571l33.645714-133.851428a25.6 25.6 0 0 0-19.017143-30.72zM512 313.782857l-26.331429 104.594286a24.868571 24.868571 0 0 0 11.702858 27.794286l146.285714 84.114285L454.948571 709.485714l40.96-159.451428a24.868571 24.868571 0 0 0-8.777142-26.331429L382.537143 438.857143 512 313.782857zM373.76 446.902857z m53.394286 292.571429z" fill="#979797" /></svg>