<?xml version="1.0" standalone="no"?><!DOCTYPE svg PUBLIC "-//W3C//DTD SVG 1.1//EN" "http://www.w3.org/Graphics/SVG/1.1/DTD/svg11.dtd"><svg class="icon" width="200px" height="200.00px" viewBox="0 0 1024 1024" version="1.1" xmlns="http://www.w3.org/2000/svg"><path d="M279.009157 1010.428916l-8.019277-193.141205A437.975904 437.975904 0 1 1 512 889.522892c-12.830843 0-25.723373-0.555181-38.49253-1.665543zM512 87.595181a363.951807 363.951807 0 0 0-185.862169 676.950361l17.210603 10.24 4.318072 104.86747 108.260241-68.225542 13.015904 1.542169a370.860723 370.860723 0 0 0 43.180722 2.529156 363.951807 363.951807 0 0 0 0-727.903614z"  /><path d="M515.084337 642.775904a260.93494 260.93494 0 0 1-222.072289-123.373494l62.735422-39.356145a188.144578 188.144578 0 0 0 322.313253-5.058313l64.09253 37.012048a263.155663 263.155663 0 0 1-227.068916 130.775904z"  /></svg>