<?xml version="1.0" standalone="no"?><!DOCTYPE svg PUBLIC "-//W3C//DTD SVG 1.1//EN" "http://www.w3.org/Graphics/SVG/1.1/DTD/svg11.dtd"><svg class="icon" width="200px" height="200.00px" viewBox="0 0 1024 1024" version="1.1" xmlns="http://www.w3.org/2000/svg"><path d="M501.76 128a379.611429 379.611429 0 0 0-197.485714 54.857143A384.731429 384.731429 0 0 0 138.971429 387.657143a18.285714 18.285714 0 0 0 10.971428 23.405714h6.582857a18.285714 18.285714 0 0 0 16.822857-12.434286 348.16 348.16 0 0 1 328.411429-234.057142A365.714286 365.714286 0 0 1 585.142857 174.811429a350.354286 350.354286 0 0 1 214.308572 157.988571 345.965714 345.965714 0 0 1 38.765714 263.314286 341.577143 341.577143 0 0 1-157.988572 213.577143 345.965714 345.965714 0 0 1-178.468571 49.737142 331.337143 331.337143 0 0 1-84.114286-10.24 348.16 348.16 0 0 1-213.577143-157.988571 17.554286 17.554286 0 0 0-15.36-9.508571 20.48 20.48 0 0 0-9.508571 0 18.285714 18.285714 0 0 0-6.582857 24.868571 381.074286 381.074286 0 0 0 236.251428 174.811429 377.417143 377.417143 0 0 0 93.622858 11.702857 384 384 0 0 0 372.297142-292.571429 384.731429 384.731429 0 0 0-280.137142-460.8 365.714286 365.714286 0 0 0-92.891429-11.702857z" fill="#999999" /><path d="M642.194286 570.514286v20.48h-109.714286v71.68a19.017143 19.017143 0 0 0 6.582857 12.434285 68.022857 68.022857 0 0 0 31.451429 4.388572h7.314285v13.897143H448.365714v-13.897143h6.582857a73.142857 73.142857 0 0 0 32.914286-4.388572 16.822857 16.822857 0 0 0 7.314286-12.434285v-71.68H381.805714V570.514286h114.102857v-52.662857H381.805714V497.371429h105.325715l-52.662858-142.628572a73.142857 73.142857 0 0 0-21.942857-32.914286 58.514286 58.514286 0 0 0-26.331428-5.851428v-13.897143h109.714285v13.897143a78.262857 78.262857 0 0 0-24.868571 7.314286c-4.388571 0-7.314286 5.851429-7.314286 8.777142a40.96 40.96 0 0 0 5.12 13.897143l54.857143 151.405715 54.125714-146.285715a56.32 56.32 0 0 0 7.314286-17.554285 15.36 15.36 0 0 0-7.314286-11.702858c0-3.657143-10.24-5.851429-22.674285-5.851428v-13.897143h87.04v13.897143a32.914286 32.914286 0 0 0-24.868572 8.045714 193.097143 193.097143 0 0 0-20.48 32.914286L541.988571 497.371429h100.205715v20.48h-109.714286v52.662857zM206.994286 391.314286l-57.782857 29.988571-31.451429-59.977143" fill="#979797" /></svg>