<?xml version="1.0" encoding="UTF-8"?>
<svg width="14px" height="14px" viewBox="0 0 14 14" version="1.1" xmlns="http://www.w3.org/2000/svg" xmlns:xlink="http://www.w3.org/1999/xlink">
    <!-- Generator: Sketch 49.1 (51147) - http://www.bohemiancoding.com/sketch -->
    <title>正品保证@3x</title>
    <desc>Created with Sketch.</desc>
    <defs></defs>
    <g id="正品保证" stroke="none" stroke-width="1" fill="none" fill-rule="evenodd">
        <path d="M7.46814076,2.31116996 C7.36877797,2.23210711 7.22876343,2.22942914 7.12644873,2.30463566 C6.36506444,2.86428627 5.76775097,3.22780671 5.29976996,3.41126147 C4.86439578,3.58193391 4.27335247,3.70243366 3.50249716,3.78165913 C3.3590631,3.79640072 3.25001432,3.9172318 3.25001432,4.0614237 L3.25,8.4403266 C3.25,8.51360906 3.2785972,8.58396868 3.32975751,8.63650934 C4.1565913,9.48587508 4.79087476,10.0621768 5.20018857,10.3400886 C5.59934802,10.6111059 6.27754017,10.9313199 7.20888967,11.2847627 C7.27342348,11.309253 7.34471768,11.3091583 7.40917274,11.2845016 C8.25168113,10.9621731 8.89519851,10.6459384 9.32628535,10.3454924 C9.77311962,10.0340712 10.3962324,9.45910273 11.1730513,8.63780398 C11.2224404,8.58558689 11.2499607,8.51644086 11.2499607,8.44456025 L11.25,4.05757275 C11.25,3.91199089 11.1389089,3.79047452 10.9939055,3.77745076 C10.2510124,3.71071457 9.66150619,3.59052111 9.20804389,3.40944683 C8.71900685,3.21416702 8.14716884,2.85147175 7.46814076,2.31116996 Z" id="Path" stroke="#979797" stroke-width="0.5"></path>
        <polygon id="Path" fill="#999999" points="7.185 5.355 5.295 5.355 5.295 5 9.245 5 9.245 5.355 7.55 5.355 7.55 6.81 8.99 6.81 8.99 7.155 7.55 7.155 7.55 8.755 9.455 8.755 9.455 9.105 5 9.105 5 8.755 5.785 8.755 5.785 6.355 6.135 6.355 6.135 8.755 7.185 8.755"></polygon>
    </g>
</svg>